<?xml version="1.0" encoding="UTF-8"?><svg xmlns="http://www.w3.org/2000/svg" width="20" height="140.12" viewBox="0 0 20 140.12"><defs><style>.h{fill:#888;}</style></defs><g id="a"/><g id="b"/><g id="c"/><g id="d"/><g id="e"/><g id="f"/><g id="g"><path class="h" d="M16.92,22.17c-.09-.07-.2-.09-.31-.06l-8.75,2.33c-.16,.04-.27,.19-.27,.35v8.61c-.49-.53-1.19-.87-1.97-.87-1.48,0-2.69,1.21-2.69,2.69s1.21,2.69,2.69,2.69,2.69-1.21,2.69-2.69v-7.37l8.02-2.14v4.84c-.49-.53-1.19-.87-1.97-.87-1.48,0-2.69,1.21-2.69,2.69s1.21,2.69,2.69,2.69c1.21,0,2.23-.81,2.56-1.91,.08-.07,.13-.16,.13-.27v-10.43c0-.11-.05-.22-.14-.29Zm-11.3,15.02c-1.08,0-1.97-.88-1.97-1.97s.88-1.97,1.97-1.97,1.97,.88,1.97,1.97-.88,1.97-1.97,1.97Zm8.75-2.84c-1.08,0-1.97-.88-1.97-1.97s.88-1.97,1.97-1.97,1.97,.88,1.97,1.97-.88,1.97-1.97,1.97Zm-6.05-7.25v-2.03l8.02-2.14v2.03l-8.02,2.14Z"/><g><path class="h" d="M4.33,55.3c.2,0,.36-.16,.36-.36v-9.12c0-.2-.16-.36-.36-.36s-.36,.16-.36,.36v9.12c0,.2,.16,.36,.36,.36Z"/><path class="h" d="M8.18,55.3c.2,0,.36-.16,.36-.36v-12.87c0-.2-.16-.36-.36-.36s-.36,.16-.36,.36v12.87c0,.2,.16,.36,.36,.36Z"/><path class="h" d="M12.03,55.3c.2,0,.36-.16,.36-.36v-6.43c0-.2-.16-.36-.36-.36s-.36,.16-.36,.36v6.43c0,.2,.16,.36,.36,.36Z"/><path class="h" d="M15.89,55.3c.2,0,.36-.16,.36-.36v-3.65c0-.2-.16-.36-.36-.36s-.36,.16-.36,.36v3.65c0,.2,.16,.36,.36,.36Z"/><path class="h" d="M17.4,57.61H2.6c-.2,0-.36,.16-.36,.36s.16,.36,.36,.36h14.79c.2,0,.36-.16,.36-.36s-.16-.36-.36-.36Z"/></g><g><path class="h" d="M10.81,83.6H2.96c-1.4,0-2.54,1.14-2.54,2.54v7.85c0,1.4,1.14,2.54,2.54,2.54h7.85c1.4,0,2.54-1.14,2.54-2.54v-7.85c0-1.4-1.14-2.54-2.54-2.54Zm1.82,10.39c0,1-.81,1.82-1.82,1.82H2.96c-1,0-1.82-.81-1.82-1.82v-7.85c0-1,.81-1.82,1.82-1.82h7.85c1,0,1.82,.81,1.82,1.82v7.85Z"/><path class="h" d="M6.89,87.76c-1.28,0-2.31,1.04-2.31,2.31s1.04,2.31,2.31,2.31,2.31-1.04,2.31-2.31-1.04-2.31-2.31-2.31Zm0,3.9c-.87,0-1.59-.71-1.59-1.59s.71-1.59,1.59-1.59,1.59,.71,1.59,1.59-.71,1.59-1.59,1.59Z"/><path class="h" d="M19.11,86.85c-.3-.22-.68-.27-1.03-.16l-2.7,.9h0c-.47,.16-.78,.59-.78,1.08v2.78c0,.49,.31,.93,.78,1.08l2.7,.9c.12,.04,.24,.06,.36,.06,.23,0,.47-.07,.66-.22,.3-.22,.47-.55,.47-.93v-4.58c0-.37-.17-.71-.47-.93Zm-.25,5.5c0,.13-.06,.26-.17,.34-.11,.08-.25,.1-.37,.06l-2.7-.9c-.17-.06-.28-.21-.28-.39v-2.78c0-.18,.11-.34,.28-.39l2.7-.9c.13-.04,.26-.02,.37,.06,.11,.08,.17,.2,.17,.34v4.58Z"/></g><path class="h" d="M17.68,103.12c-.66-.35-1.38-.2-1.91,.39H4.24c-.54-.59-1.25-.74-1.91-.39-.75,.4-1.35,1.49-1,2.54,.1,.3,.73,1.82,3.29,2.76,1.04,2.45,2.89,4.13,5.03,4.3v3.13c-.99,.11-1.83,.65-2.27,1.41l5.27-.09c-.47-.72-1.3-1.22-2.27-1.32v-3.13c2.14-.17,3.99-1.85,5.03-4.3,2.56-.94,3.18-2.46,3.29-2.76,.35-1.05-.25-2.14-1-2.54Zm-15.66,2.31c-.22-.67,.16-1.41,.65-1.67,.37-.2,.73-.1,1.05,.26,.01,1.23,.21,2.4,.55,3.47-1.79-.83-2.21-1.92-2.25-2.06Zm7.99,6.59c-2.04,0-3.83-1.62-4.8-4.04v-.02c-.45-1.1-.72-2.37-.76-3.73H15.56c-.04,1.35-.31,2.62-.75,3.73v.02c-.98,2.41-2.77,4.04-4.81,4.04Zm7.99-6.59c-.05,.14-.46,1.23-2.25,2.06,.34-1.06,.53-2.23,.55-3.47,.32-.36,.68-.46,1.05-.26,.5,.26,.88,1,.65,1.67Z"/><g><path class="h" d="M17.72,136.91h0l-4.32-11.23c-.09-.26-.31-.46-.59-.52-.27-.06-.56,.01-.76,.21l-6.77,6.56c-.2,.19-.29,.48-.23,.75s.24,.5,.5,.6l11.1,4.67c.1,.04,.2,.06,.3,.06,.21,0,.41-.08,.57-.23,.23-.23,.31-.56,.2-.86Zm-11.96-4.38s0-.06,.03-.09l6.77-6.56s.04-.03,.06-.03c0,0,.02,0,.02,0,.02,0,.05,.02,.07,.07l.98,2.55-5.35,5.19-2.52-1.06s-.05-.05-.06-.07Zm11.25,4.72s-.06,.04-.09,.02l-7.85-3.3,4.91-4.76,3.06,7.94s0,.08-.02,.1Z"/><path class="h" d="M6.13,126.56c.07,.07,.17,.11,.26,.11s.18-.03,.25-.1c.14-.14,.15-.37,0-.51l-1.93-1.99c-.14-.14-.37-.15-.51,0-.14,.14-.15,.37,0,.51l1.93,1.99Z"/><path class="h" d="M5.34,129.21c.18,0,.33-.13,.36-.31,.03-.2-.11-.38-.31-.41l-2.74-.4c-.2-.03-.38,.11-.41,.31-.03,.2,.11,.38,.31,.41l2.74,.4s.04,0,.05,0Z"/><path class="h" d="M8.96,125.7s.03,0,.04,0c.2-.02,.34-.2,.32-.4l-.32-2.75c-.02-.2-.21-.34-.4-.32-.2,.02-.34,.2-.32,.4l.32,2.75c.02,.19,.18,.32,.36,.32Z"/></g><path class="h" d="M17.02,62.59c-.12-.07-.26-.06-.37,.01l-3.98,2.52H6.83c-2.23,0-4.04,1.81-4.04,4.04s1.65,3.87,3.74,4.03c.2,.92,.73,3.28,1.15,3.8,.29,.36,.72,.57,1.15,.57h.04c.43-.01,.81-.22,1.07-.58,.06-.09,.08-.2,.06-.31-.2-.74-.66-2.56-.84-3.46h3.5l3.98,2.52c.06,.04,.13,.06,.19,.06,.06,0,.12-.01,.18-.05,.12-.06,.19-.19,.19-.32v-12.5c0-.13-.07-.25-.19-.32Zm-13.5,6.57c0-1.83,1.49-3.32,3.31-3.32h5.58v6.63H6.83c-1.83,0-3.31-1.49-3.31-3.31Zm5.74,7.5c-.14,.12-.29,.16-.4,.16-.23,0-.45-.1-.61-.3-.22-.27-.64-1.83-.97-3.32h1.15c.16,.92,.66,2.85,.83,3.46Zm7.23-1.91l-3.34-2.11v-6.96l3.34-2.11v11.18Z"/><g><path class="h" d="M9.01,11.67c-1.03,0-1.87,.84-1.87,1.87s.84,1.86,1.87,1.86c.92,0,1.69-.68,1.83-1.56,.02-.04,.03-.09,.03-.14v-5.28c.48,.19,1.25,.79,1.25,2.73,0,.2,.16,.36,.36,.36s.36-.16,.36-.36c0-3.5-2.32-3.54-2.34-3.54-.2,0-.36,.16-.36,.36v3.87l-1.14-.17Zm0,3c-.63,0-1.14-.51-1.14-1.14s.51-1.14,1.09-1.14l1.06,.16c.06,.3,.13,.74,.13,.99,0,.63-.51,1.14-1.14,1.14Z"/><path class="h" d="M18.91,10.32L10.26,1.41c-.14-.14-.38-.14-.52,0L1.09,10.32c-.1,.1-.13,.26-.07,.39,.06,.13,.19,.22,.33,.22H3.76v7.4c0,.2,.16,.36,.36,.36H15.88c.2,0,.36-.16,.36-.36v-7.4h2.41c.15,0,.28-.09,.33-.22,.06-.13,.03-.29-.07-.39Zm-3.03-.11c-.2,0-.36,.16-.36,.36v7.4H4.49v-7.4c0-.2-.16-.36-.36-.36h-1.92L10,2.19l7.79,8.02h-1.92Z"/></g></g></svg>