<?xml version="1.0" encoding="UTF-8"?><svg xmlns="http://www.w3.org/2000/svg" width="119.86" height="60" viewBox="0 0 119.86 60"><defs><style>.g{fill:#fff;}.h{fill:#888;}</style></defs><g id="a"/><g id="b"/><g id="c"/><g id="d"/><g id="e"/><g id="f"><path class="g" d="M111.22,43.32l-9.98-7.7c-.65-.5-1.5-.59-2.24-.23-.73,.36-1.19,1.09-1.19,1.91v15.41c0,.82,.46,1.55,1.19,1.91,.3,.15,.62,.22,.94,.22,.46,0,.92-.15,1.3-.45l9.98-7.7c.53-.4,.83-1.02,.83-1.68s-.3-1.28-.83-1.68Zm-.79,2.34l-9.98,7.7c-.26,.2-.58,.23-.87,.09-.29-.14-.46-.42-.46-.74v-15.41c0-.32,.17-.6,.46-.74,.12-.06,.25-.09,.37-.09,.18,0,.35,.06,.5,.18l9.98,7.7c.21,.16,.32,.4,.32,.66s-.12,.5-.32,.65Z"/><g><path class="h" d="M10.15,52.37c-.36,0-.65-.29-.65-.65v-13.42c0-.36,.29-.65,.65-.65s.65,.29,.65,.65v13.42c0,.36-.29,.65-.65,.65Z"/><path class="h" d="M19.85,52.13c-.17,0-.33-.06-.46-.19l-6.71-6.71c-.12-.12-.19-.29-.19-.46s.07-.34,.19-.46l6.71-6.71c.25-.25,.67-.25,.92,0s.25,.67,0,.92l-6.25,6.25,6.25,6.25c.25,.25,.25,.67,0,.92-.13,.13-.29,.19-.46,.19Z"/></g><g><path class="h" d="M49.85,52.37c-.36,0-.65-.29-.65-.65v-13.42c0-.36,.29-.65,.65-.65s.65,.29,.65,.65v13.42c0,.36-.29,.65-.65,.65Z"/><path class="h" d="M40.15,52.13c-.17,0-.33-.06-.46-.19-.25-.25-.25-.67,0-.92l6.25-6.25-6.25-6.25c-.25-.25-.25-.67,0-.92s.67-.25,.92,0l6.71,6.71c.25,.25,.25,.67,0,.92l-6.71,6.71c-.13,.13-.29,.19-.46,.19Z"/></g><path class="h" d="M83.19,47.06c-.25-.25-.67-.25-.92,0s-.25,.67,0,.92l.75,.75h-4.28c-1.26-1.44-2.36-2.69-3.3-3.76,.94-1.07,2.03-2.31,3.3-3.76h4.36l-.83,.83c-.25,.25-.25,.67,0,.92,.13,.13,.29,.19,.46,.19s.33-.06,.46-.19l1.86-1.86c.25-.25,.25-.67,0-.92l-1.86-1.86c-.25-.25-.67-.25-.92,0s-.25,.67,0,.92l.67,.67h-4.49c-.19,0-.37,.08-.49,.22-1.02,1.17-2.23,2.55-3.38,3.85-2.03-2.31-3.12-3.53-3.21-3.6-.22-.19-.37-.31-6.12-.15-.36,.01-.64,.31-.63,.67,.01,.36,.29,.64,.67,.63,2.2-.06,4.66-.09,5.34-.05,.4,.44,1.63,1.83,3.09,3.49-1.48,1.68-2.72,3.08-3.08,3.49-.68,.05-3.14,.02-5.35-.05-.37,0-.66,.27-.67,.63-.01,.36,.27,.66,.63,.67,1.85,.05,3.12,.07,3.99,.07,1.86,0,1.98-.1,2.13-.23,.09-.08,1.18-1.3,3.21-3.6,1.15,1.31,2.36,2.69,3.38,3.85,.12,.14,.3,.22,.49,.22h4.58l-.75,.75c-.25,.25-.25,.67,0,.92,.13,.13,.29,.19,.46,.19s.33-.06,.46-.19l1.86-1.86c.25-.25,.25-.67,0-.92l-1.86-1.86Z"/><g><path class="h" d="M47.07,12.88c-.25,.25-.25,.67,0,.92,.13,.13,.29,.19,.46,.19s.33-.06,.46-.19l1.86-1.86c.06-.06,.11-.13,.14-.21,.07-.16,.07-.34,0-.5-.03-.08-.08-.15-.14-.21l-1.86-1.86c-.25-.25-.67-.25-.92,0s-.25,.67,0,.92l.75,.75h-10.93c-.8,0-1.27,.33-1.53,.61-.62,.67-.57,1.61-.57,1.66-.06,3.17,0,3.41,.02,3.5,.07,.3,.35,.51,.64,.51,.05,0,.1,0,.15-.02,.35-.09,.56-.42,.48-.77-.03-.23-.02-1.81,0-3.26,0-.09,.01-.51,.22-.74,.04-.05,.18-.2,.58-.2h10.93l-.75,.75Z"/><path class="h" d="M55.2,13.18c-.09-.35-.44-.58-.79-.5-.35,.09-.57,.42-.48,.76,.03,.23,.02,1.81,0,3.26,0,.09-.01,.51-.22,.74-.04,.05-.18,.2-.58,.2h-10.93l.75-.75c.25-.25,.25-.67,0-.92s-.67-.25-.92,0l-1.86,1.86c-.06,.06-.11,.13-.14,.21-.07,.16-.07,.34,0,.5,.03,.08,.08,.15,.14,.21l1.86,1.86c.13,.13,.29,.19,.46,.19s.33-.06,.46-.19c.25-.25,.25-.67,0-.92l-.75-.75h10.93c.8,0,1.28-.33,1.53-.61,.62-.67,.57-1.61,.57-1.66,.06-3.17,0-3.4-.02-3.49Z"/></g><g><path class="h" d="M80.83,5.95h-11.67c-1.08,0-1.95,.87-1.95,1.95v13.97c0,1.08,.87,1.95,1.95,1.95h11.67c1.08,0,1.95-.87,1.95-1.95V7.9c0-1.08-.87-1.95-1.95-1.95Zm.65,15.92c0,.36-.29,.65-.65,.65h-11.67c-.36,0-.65-.29-.65-.65V7.9c0-.36,.29-.65,.65-.65h11.67c.36,0,.65,.29,.65,.65v13.97Z"/><path class="h" d="M78.27,10.16h-6.53c-.36,0-.65,.29-.65,.65s.29,.65,.65,.65h6.53c.36,0,.65-.29,.65-.65s-.29-.65-.65-.65Z"/><path class="h" d="M78.27,12.88h-6.53c-.36,0-.65,.29-.65,.65s.29,.65,.65,.65h6.53c.36,0,.65-.29,.65-.65s-.29-.65-.65-.65Z"/><path class="h" d="M78.27,15.6h-6.53c-.36,0-.65,.29-.65,.65s.29,.65,.65,.65h6.53c.36,0,.65-.29,.65-.65s-.29-.65-.65-.65Z"/><path class="h" d="M78.27,18.31h-6.53c-.36,0-.65,.29-.65,.65s.29,.65,.65,.65h6.53c.36,0,.65-.29,.65-.65s-.29-.65-.65-.65Z"/></g><g><path class="h" d="M108.83,7.08c-.24-.27-.65-.29-.92-.05l-3.25,2.93c-.41,.37-1.28,.7-1.83,.7h-2.25c-1.08,0-1.95,.87-1.95,1.95v4.78c0,1.08,.87,1.95,1.95,1.95h2.25c.55,0,1.42,.34,1.83,.7l3.25,2.93c.12,.11,.28,.17,.44,.17,.18,0,.35-.07,.48-.21,.24-.27,.22-.68-.05-.92l-3.25-2.93c-.64-.58-1.83-1.04-2.7-1.04h-2.25c-.36,0-.65-.29-.65-.65v-4.78c0-.36,.29-.65,.65-.65h2.25c.87,0,2.05-.46,2.7-1.04l3.25-2.93c.27-.24,.29-.65,.05-.92Z"/><path class="h" d="M106.88,12.4v5.2c0,.36,.29,.65,.65,.65s.65-.29,.65-.65v-5.2c0-.36-.29-.65-.65-.65s-.65,.29-.65,.65Z"/><path class="h" d="M110.43,10.78c-.36,0-.65,.29-.65,.65v7.15c0,.36,.29,.65,.65,.65s.65-.29,.65-.65v-7.15c0-.36-.29-.65-.65-.65Z"/></g><g><path class="h" d="M17.88,6.77c-.17,0-.35,.05-.48,.18-.13,.12-.2,.29-.2,.47V15.73l-2.52-.37c-2.11,0-3.82,1.71-3.82,3.82s1.71,3.82,3.82,3.82c1.9,0,3.47-1.4,3.76-3.22,.04-.08,.06-.17,.06-.27V8.2c1.04,.29,2.88,1.25,2.88,4.33,0,.36,.29,.65,.65,.65s.65-.29,.65-.65c0-5.41-4.75-5.75-4.8-5.75Zm-3.21,14.93c-1.39,0-2.52-1.13-2.52-2.52s1.13-2.52,2.43-2.53l2.31,.34c.13,.64,.3,1.64,.3,2.18,0,1.39-1.13,2.52-2.52,2.52Z"/><path class="h" d="M7.98,8.43h6.82c.36,0,.65-.29,.65-.65s-.29-.65-.65-.65H7.98c-.36,0-.65,.29-.65,.65s.29,.65,.65,.65Z"/><path class="h" d="M7.98,11.17h6.82c.36,0,.65-.29,.65-.65s-.29-.65-.65-.65H7.98c-.36,0-.65,.29-.65,.65s.29,.65,.65,.65Z"/><path class="h" d="M15.45,13.26c0-.36-.29-.65-.65-.65H7.98c-.36,0-.65,.29-.65,.65s.29,.65,.65,.65h6.82c.36,0,.65-.29,.65-.65Z"/></g></g></svg>